<svg width="1882" height="1024" viewBox="0 0 1882 1024" fill="none"
    xmlns="http://www.w3.org/2000/svg">
    <path d="M883 188.558L774.5 251.762L666 188.558V63.2039L774.5 0L883 63.2039V188.558Z" fill="#0099FF" fill-opacity="0.5"/>
    <path d="M1549 188.558L1440.5 251.762L1332 188.558V63.2039L1440.5 0L1549 63.2039V188.558Z" fill="#3099FF"/>
    <path d="M328 381.558L219.5 444.762L111 381.558V256.204L219.5 193L328 256.204V381.558Z" fill="#0095FF"/>
    <path d="M772 381.558L663.5 444.762L555 381.558V256.204L663.5 193L772 256.204V381.558Z" fill="#303030"/>
    <path d="M1660 381.558L1551.5 444.762L1443 381.558V256.204L1551.5 193L1660 256.204V381.558Z" fill="#00995F"/>
    <path d="M1882 381.558L1773.5 444.762L1665 381.558V256.204L1773.5 193L1882 256.204V381.558Z" fill="#3035FF"/>
    <path d="M217 574.558L108.5 637.762L0 574.558V449.204L108.5 386L217 449.204V574.558Z" fill="#00994F"/>
    <path d="M883 574.558L774.5 637.762L666 574.558V449.204L774.5 386L883 449.204V574.558Z" fill="#303030"/>
    <path d="M1327 574.558L1218.5 637.762L1110 574.558V449.204L1218.5 386L1327 449.204V574.558Z" fill="#00994F" fill-opacity="0.48"/>
    <path d="M994 767.558L885.5 830.762L777 767.558V642.204L885.5 579L994 642.204V767.558Z" fill="#303030"/>
    <path d="M1216 767.558L1107.5 830.762L999 767.558V642.204L1107.5 579L1216 642.204V767.558Z" fill="#00995F" fill-opacity="0.7"/>
    <path d="M883 960.558L774.5 1023.76L666 960.558V835.204L774.5 772L883 835.204V960.558Z" fill="#303080"/>
</svg>
