<svg width="1882" height="1024" viewBox="0 0 1882 1024" fill="none"
    xmlns="http://www.w3.org/2000/svg">
    <path d="M217 188.558L108.5 251.762L0 188.558V63.2039L108.5 0L217 63.2039V188.558Z" fill="#303090"/>
    <path d="M439 188.558L330.5 251.762L222 188.558V63.2039L330.5 0L439 63.2039V188.558Z" fill="#406020"/>
    <path d="M550 381.558L441.5 444.762L333 381.558V256.204L441.5 193L550 256.204V381.558Z" fill="#303030"/>
    <path d="M772 381.558L663.5 444.762L555 381.558V256.204L663.5 193L772 256.204V381.558Z" fill="#203030"/>
    <path d="M1216 381.558L1107.5 444.762L999 381.558V256.204L1107.5 193L1216 256.204V381.558Z" fill="#903030" fill-opacity="0.6"/>
    <path d="M1438 381.558L1329.5 444.762L1221 381.558V256.204L1329.5 193L1438 256.204V381.558Z" fill="#309090"/>
    <path d="M883 574.558L774.5 637.762L666 574.558V449.204L774.5 386L883 449.204V574.558Z" fill="#303030"/>
    <path d="M1549 574.558L1440.5 637.762L1332 574.558V449.204L1440.5 386L1549 449.204V574.558Z" fill="#903090"/>
    <path d="M1771 574.558L1662.5 637.762L1554 574.558V449.204L1662.5 386L1771 449.204V574.558Z" fill="#904030"/>
    <path d="M1438 767.558L1329.5 830.762L1221 767.558V642.204L1329.5 579L1438 642.204V767.558Z" fill="#205030"/>
    <path d="M1882 767.558L1773.5 830.762L1665 767.558V642.204L1773.5 579L1882 642.204V767.558Z" fill="#306090"/>
</svg>
