<svg width="131" height="79" viewBox="0 0 131 79" fill="none" xmlns="http://www.w3.org/2000/svg">
<path d="M7 46.5L12 37.5L18 29.5L21.6417 25.5782C23.5434 23.5302 25.6246 21.6565 27.8605 19.9796V19.9796C30.9417 17.6687 34.2963 15.7467 37.8482 14.2572L42.6288 12.2525C46.1975 10.7559 49.928 9.67867 53.7452 9.04247L57.4069 8.43218C63.0928 7.48453 68.8998 7.52723 74.5711 8.55838L82.5 10L93.0038 14.1379C96.9788 15.7038 100.696 17.8571 104.032 20.526V20.526C105.675 21.8402 107.219 23.274 108.65 24.8156L113 29.5L119 37.5L124 46.5" stroke="white" stroke-width="14" stroke-linecap="round"/>
<circle cx="66" cy="54" r="25" fill="white"/>
</svg>
