<svg width="2560" height="1440" viewBox="0 0 2560 1440" fill="none" xmlns="http://www.w3.org/2000/svg">
<g clip-path="url(#clip0_501_1893)">
<rect width="2560" height="1440" fill="#141414"/>
<g filter="url(#filter0_f_501_1893)">
<g clip-path="url(#paint0_diamond_501_1893_clip_path)" data-figma-skip-parse="true"><g transform="matrix(0 0.9 -0.9 0 2301 1155)"><rect x="0" y="0" width="1148.89" height="1139.44" fill="url(#paint0_diamond_501_1893)" opacity="1" shape-rendering="crispEdges"/><rect x="0" y="0" width="1148.89" height="1139.44" transform="scale(1 -1)" fill="url(#paint0_diamond_501_1893)" opacity="1" shape-rendering="crispEdges"/><rect x="0" y="0" width="1148.89" height="1139.44" transform="scale(-1 1)" fill="url(#paint0_diamond_501_1893)" opacity="1" shape-rendering="crispEdges"/><rect x="0" y="0" width="1148.89" height="1139.44" transform="scale(-1)" fill="url(#paint0_diamond_501_1893)" opacity="1" shape-rendering="crispEdges"/></g></g><path d="M3325.5 1288C3325.5 1785.06 2922.56 2188 2425.5 2188C1928.44 2188 1525.5 1785.06 1525.5 1288C1525.5 790.944 1928.44 388 2425.5 388C2922.56 388 3325.5 790.944 3325.5 1288Z" data-figma-gradient-fill="{&#34;type&#34;:&#34;GRADIENT_DIAMOND&#34;,&#34;stops&#34;:[{&#34;color&#34;:{&#34;r&#34;:0.13725490868091583,&#34;g&#34;:0.50980395078659058,&#34;b&#34;:1.0,&#34;a&#34;:1.0},&#34;position&#34;:0.52999997138977051},{&#34;color&#34;:{&#34;r&#34;:0.30588236451148987,&#34;g&#34;:1.0,&#34;b&#34;:1.0,&#34;a&#34;:1.0},&#34;position&#34;:0.72500002384185791}],&#34;stopsVar&#34;:[{&#34;color&#34;:{&#34;r&#34;:0.13725490868091583,&#34;g&#34;:0.50980395078659058,&#34;b&#34;:1.0,&#34;a&#34;:1.0},&#34;position&#34;:0.52999997138977051},{&#34;color&#34;:{&#34;r&#34;:0.30588236451148987,&#34;g&#34;:1.0,&#34;b&#34;:1.0,&#34;a&#34;:1.0},&#34;position&#34;:0.72500002384185791}],&#34;transform&#34;:{&#34;m00&#34;:2.1013827613755587e-13,&#34;m01&#34;:-1800.0,&#34;m02&#34;:3200.9997558593750,&#34;m10&#34;:1800.0,&#34;m11&#34;:2.2781773754802781e-13,&#34;m12&#34;:255.00004577636719},&#34;opacity&#34;:1.0,&#34;blendMode&#34;:&#34;NORMAL&#34;,&#34;visible&#34;:true}"/>
</g>
<g filter="url(#filter1_f_501_1893)">
<g clip-path="url(#paint1_diamond_501_1893_clip_path)" data-figma-skip-parse="true"><g transform="matrix(0 0.9 -0.9 0 263 257)"><rect x="0" y="0" width="1068.33" height="1101.67" fill="url(#paint1_diamond_501_1893)" opacity="1" shape-rendering="crispEdges"/><rect x="0" y="0" width="1068.33" height="1101.67" transform="scale(1 -1)" fill="url(#paint1_diamond_501_1893)" opacity="1" shape-rendering="crispEdges"/><rect x="0" y="0" width="1068.33" height="1101.67" transform="scale(-1 1)" fill="url(#paint1_diamond_501_1893)" opacity="1" shape-rendering="crispEdges"/><rect x="0" y="0" width="1068.33" height="1101.67" transform="scale(-1)" fill="url(#paint1_diamond_501_1893)" opacity="1" shape-rendering="crispEdges"/></g></g><path d="M1072.5 196.5C1072.5 693.556 669.556 1096.5 172.5 1096.5C-324.556 1096.5 -727.5 693.556 -727.5 196.5C-727.5 -300.556 -324.556 -703.5 172.5 -703.5C669.556 -703.5 1072.5 -300.556 1072.5 196.5Z" data-figma-gradient-fill="{&#34;type&#34;:&#34;GRADIENT_DIAMOND&#34;,&#34;stops&#34;:[{&#34;color&#34;:{&#34;r&#34;:0.0,&#34;g&#34;:0.98823529481887817,&#34;b&#34;:0.41176471114158630,&#34;a&#34;:1.0},&#34;position&#34;:0.52999997138977051},{&#34;color&#34;:{&#34;r&#34;:0.30588236451148987,&#34;g&#34;:1.0,&#34;b&#34;:1.0,&#34;a&#34;:1.0},&#34;position&#34;:0.72500002384185791}],&#34;stopsVar&#34;:[{&#34;color&#34;:{&#34;r&#34;:0.0,&#34;g&#34;:0.98823529481887817,&#34;b&#34;:0.41176471114158630,&#34;a&#34;:1.0},&#34;position&#34;:0.52999997138977051},{&#34;color&#34;:{&#34;r&#34;:0.30588236451148987,&#34;g&#34;:1.0,&#34;b&#34;:1.0,&#34;a&#34;:1.0},&#34;position&#34;:0.72500002384185791}],&#34;transform&#34;:{&#34;m00&#34;:2.1013827613755587e-13,&#34;m01&#34;:-1800.0,&#34;m02&#34;:1163.0002441406250,&#34;m10&#34;:1800.0,&#34;m11&#34;:2.2781773754802781e-13,&#34;m12&#34;:-643.0},&#34;opacity&#34;:1.0,&#34;blendMode&#34;:&#34;NORMAL&#34;,&#34;visible&#34;:true}"/>
</g>
<path d="M-95.6221 -0.149712L-7.96558 -103L79.6909 -0.149712L-7.96558 102.701L-95.6221 -0.149712Z" fill="#141414"/>
<path d="M-6.79688 103.869L80.8596 1.01904L168.516 103.869L80.8596 206.72L-6.79688 103.869Z" fill="#141414"/>
<path d="M-95.6221 207.888L-7.96558 105.038L79.6909 207.888L-7.96558 310.739L-95.6221 207.888Z" fill="#141414"/>
<path d="M82.0283 207.888L169.685 105.038L257.341 207.888L169.685 310.739L82.0283 207.888Z" fill="#141414"/>
<path d="M-6.79688 311.907L80.8596 209.057L168.516 311.907L80.8596 414.758L-6.79688 311.907Z" fill="#141414"/>
<path d="M82.0283 415.926L169.685 313.076L257.341 415.926L169.685 518.777L82.0283 415.926Z" fill="#141414"/>
<path d="M-6.79688 519.946L80.8596 417.095L168.516 519.946L80.8596 622.796L-6.79688 519.946Z" fill="#141414"/>
<path d="M-95.6221 623.965L-7.96558 521.114L79.6909 623.965L-7.96558 726.815L-95.6221 623.965Z" fill="#141414"/>
<path d="M82.0283 623.965L169.685 521.114L257.341 623.965L169.685 726.815L82.0283 623.965Z" fill="#141414"/>
<path d="M-6.79688 727.984L80.8596 625.134L168.516 727.984L80.8596 830.834L-6.79688 727.984Z" fill="#141414"/>
<path d="M-95.6221 832.003L-7.96558 729.152L79.6909 832.003L-7.96558 934.853L-95.6221 832.003Z" fill="#141414"/>
<path d="M82.0283 832.003L169.685 729.152L257.341 832.003L169.685 934.853L82.0283 832.003Z" fill="#141414"/>
<path d="M-6.79688 936.022L80.8596 833.171L168.516 936.022L80.8596 1038.87L-6.79688 936.022Z" fill="#141414"/>
<path d="M-95.6221 1040.04L-7.96558 937.19L79.6909 1040.04L-7.96558 1142.89L-95.6221 1040.04Z" fill="#141414"/>
<path d="M82.0283 1040.04L169.685 937.19L257.341 1040.04L169.685 1142.89L82.0283 1040.04Z" fill="#141414"/>
<path d="M-6.79688 1144.06L80.8596 1041.21L168.516 1144.06L80.8596 1246.91L-6.79688 1144.06Z" fill="#141414"/>
<path d="M259.68 207.888L347.336 105.038L434.993 207.888L347.336 310.739L259.68 207.888Z" fill="#141414"/>
<path d="M259.68 415.926L347.336 313.076L434.993 415.926L347.336 518.777L259.68 415.926Z" fill="#141414"/>
<path d="M259.68 623.965L347.336 521.114L434.993 623.965L347.336 726.815L259.68 623.965Z" fill="#141414"/>
<path d="M170.854 727.984L258.511 625.134L346.167 727.984L258.511 830.834L170.854 727.984Z" fill="#141414"/>
<path d="M170.854 519.85L258.511 417L346.167 519.85L258.511 622.701L170.854 519.85Z" fill="#141414"/>
<path d="M170.854 936.022L258.511 833.171L346.167 936.022L258.511 1038.87L170.854 936.022Z" fill="#141414"/>
<path d="M259.68 1040.04L347.336 937.19L434.993 1040.04L347.336 1142.89L259.68 1040.04Z" fill="#141414"/>
<path d="M170.854 1144.06L258.511 1041.21L346.167 1144.06L258.511 1246.91L170.854 1144.06Z" fill="#141414"/>
<path d="M348.504 103.869L436.16 1.01904L523.817 103.869L436.16 206.72L348.504 103.869Z" fill="#141414"/>
<path d="M437.328 207.888L524.985 105.038L612.641 207.888L524.985 310.739L437.328 207.888Z" fill="#141414"/>
<path d="M348.504 311.907L436.16 209.057L523.817 311.907L436.16 414.758L348.504 311.907Z" fill="#141414"/>
<path d="M437.328 415.926L524.985 313.076L612.641 415.926L524.985 518.777L437.328 415.926Z" fill="#141414"/>
<path d="M348.504 519.946L436.16 417.095L523.817 519.946L436.16 622.796L348.504 519.946Z" fill="#141414"/>
<path d="M437.328 623.965L524.985 521.114L612.641 623.965L524.985 726.815L437.328 623.965Z" fill="#141414"/>
<path d="M348.504 727.984L436.16 625.134L523.817 727.984L436.16 830.834L348.504 727.984Z" fill="#141414"/>
<path d="M437.328 832.003L524.985 729.152L612.641 832.003L524.985 934.853L437.328 832.003Z" fill="#141414"/>
<path d="M348.504 936.022L436.16 833.171L523.817 936.022L436.16 1038.87L348.504 936.022Z" fill="#141414"/>
<path d="M437.328 1040.04L524.985 937.19L612.641 1040.04L524.985 1142.89L437.328 1040.04Z" fill="#141414"/>
<path d="M614.979 -0.149712L702.636 -103L790.292 -0.149712L702.636 102.701L614.979 -0.149712Z" fill="#141414"/>
<path d="M526.154 103.869L613.811 1.01904L701.467 103.869L613.811 206.72L526.154 103.869Z" fill="#141414"/>
<path d="M614.979 207.888L702.636 105.038L790.292 207.888L702.636 310.739L614.979 207.888Z" fill="#141414"/>
<path d="M526.154 311.907L613.811 209.057L701.467 311.907L613.811 414.758L526.154 311.907Z" fill="#141414"/>
<path d="M614.979 415.926L702.636 313.076L790.292 415.926L702.636 518.777L614.979 415.926Z" fill="#141414"/>
<path d="M526.154 519.946L613.811 417.095L701.467 519.946L613.811 622.796L526.154 519.946Z" fill="#141414"/>
<path d="M614.979 623.965L702.636 521.114L790.292 623.965L702.636 726.815L614.979 623.965Z" fill="#141414"/>
<path d="M526.154 727.984L613.811 625.134L701.467 727.984L613.811 830.834L526.154 727.984Z" fill="#141414"/>
<path d="M614.979 832.003L702.636 729.152L790.292 832.003L702.636 934.853L614.979 832.003Z" fill="#141414"/>
<path d="M526.154 936.022L613.811 833.171L701.467 936.022L613.811 1038.87L526.154 936.022Z" fill="#141414"/>
<path d="M792.631 -0.149712L880.287 -103L967.944 -0.149712L880.287 102.701L792.631 -0.149712Z" fill="#141414"/>
<path d="M703.805 103.869L791.461 1.01904L879.118 103.869L791.461 206.72L703.805 103.869Z" fill="#141414"/>
<path d="M792.631 207.888L880.287 105.038L967.944 207.888L880.287 310.739L792.631 207.888Z" fill="#141414"/>
<path d="M703.805 311.907L791.461 209.057L879.118 311.907L791.461 414.758L703.805 311.907Z" fill="#141414"/>
<path d="M792.631 415.926L880.287 313.076L967.944 415.926L880.287 518.777L792.631 415.926Z" fill="#141414"/>
<path d="M703.805 519.946L791.461 417.095L879.118 519.946L791.461 622.796L703.805 519.946Z" fill="#141414"/>
<path d="M792.631 623.965L880.287 521.114L967.944 623.965L880.287 726.815L792.631 623.965Z" fill="#141414"/>
<path d="M703.805 727.984L791.461 625.134L879.118 727.984L791.461 830.834L703.805 727.984Z" fill="#141414"/>
<path d="M792.631 832.003L880.287 729.152L967.944 832.003L880.287 934.853L792.631 832.003Z" fill="#141414"/>
<path d="M703.805 936.022L791.461 833.171L879.118 936.022L791.461 1038.87L703.805 936.022Z" fill="#141414"/>
<path d="M792.631 1040.04L880.287 937.19L967.944 1040.04L880.287 1142.89L792.631 1040.04Z" fill="#141414"/>
<path d="M970.281 -0.149712L1057.94 -103L1145.59 -0.149712L1057.94 102.701L970.281 -0.149712Z" fill="#141414"/>
<path d="M881.456 103.869L969.113 1.01904L1056.77 103.869L969.113 206.72L881.456 103.869Z" fill="#141414"/>
<path d="M970.281 207.888L1057.94 105.038L1145.59 207.888L1057.94 310.739L970.281 207.888Z" fill="#141414"/>
<path d="M881.456 311.907L969.113 209.057L1056.77 311.907L969.113 414.758L881.456 311.907Z" fill="#141414"/>
<path d="M970.281 415.926L1057.94 313.076L1145.59 415.926L1057.94 518.777L970.281 415.926Z" fill="#141414"/>
<path d="M881.456 519.946L969.113 417.095L1056.77 519.946L969.113 622.796L881.456 519.946Z" fill="#141414"/>
<path d="M970.281 623.965L1057.94 521.114L1145.59 623.965L1057.94 726.815L970.281 623.965Z" fill="#141414"/>
<path d="M881.456 727.984L969.113 625.134L1056.77 727.984L969.113 830.834L881.456 727.984Z" fill="#141414"/>
<path d="M970.281 832.003L1057.94 729.152L1145.59 832.003L1057.94 934.853L970.281 832.003Z" fill="#141414"/>
<path d="M881.456 936.022L969.113 833.171L1056.77 936.022L969.113 1038.87L881.456 936.022Z" fill="#141414"/>
<path d="M970.281 1040.04L1057.94 937.19L1145.59 1040.04L1057.94 1142.89L970.281 1040.04Z" fill="#141414"/>
<path d="M881.456 1144.06L969.113 1041.21L1056.77 1144.06L969.113 1246.91L881.456 1144.06Z" fill="#141414"/>
<path d="M1147.93 -0.149712L1235.59 -103L1323.24 -0.149712L1235.59 102.701L1147.93 -0.149712Z" fill="#141414"/>
<path d="M1059.11 103.869L1146.76 1.01904L1234.42 103.869L1146.76 206.72L1059.11 103.869Z" fill="#141414"/>
<path d="M1147.93 207.888L1235.59 105.038L1323.24 207.888L1235.59 310.739L1147.93 207.888Z" fill="#141414"/>
<path d="M1059.11 311.907L1146.76 209.057L1234.42 311.907L1146.76 414.758L1059.11 311.907Z" fill="#141414"/>
<path d="M1147.93 415.926L1235.59 313.076L1323.24 415.926L1235.59 518.777L1147.93 415.926Z" fill="#141414"/>
<path d="M1059.11 519.946L1146.76 417.095L1234.42 519.946L1146.76 622.796L1059.11 519.946Z" fill="#141414"/>
<path d="M1147.93 623.965L1235.59 521.114L1323.24 623.965L1235.59 726.815L1147.93 623.965Z" fill="#141414"/>
<path d="M1059.11 727.984L1146.76 625.134L1234.42 727.984L1146.76 830.834L1059.11 727.984Z" fill="#141414"/>
<path d="M1147.93 832.003L1235.59 729.152L1323.24 832.003L1235.59 934.853L1147.93 832.003Z" fill="#141414"/>
<path d="M1059.11 936.022L1146.76 833.171L1234.42 936.022L1146.76 1038.87L1059.11 936.022Z" fill="#141414"/>
<path d="M1147.93 1040.04L1235.59 937.19L1323.24 1040.04L1235.59 1142.89L1147.93 1040.04Z" fill="#141414"/>
<path d="M1059.11 1144.06L1146.76 1041.21L1234.42 1144.06L1146.76 1246.91L1059.11 1144.06Z" fill="#141414"/>
<path d="M1236.76 103.869L1324.41 1.01904L1412.07 103.869L1324.41 206.72L1236.76 103.869Z" fill="#141414"/>
<path d="M1236.76 311.907L1324.41 209.057L1412.07 311.907L1324.41 414.758L1236.76 311.907Z" fill="#141414"/>
<path d="M1325.58 415.926L1413.24 313.076L1500.9 415.926L1413.24 518.777L1325.58 415.926Z" fill="#141414"/>
<path d="M1236.76 519.946L1324.41 417.095L1412.07 519.946L1324.41 622.796L1236.76 519.946Z" fill="#141414"/>
<path d="M1325.58 623.965L1413.24 521.114L1500.9 623.965L1413.24 726.815L1325.58 623.965Z" fill="#141414"/>
<path d="M1236.76 727.984L1324.41 625.134L1412.07 727.984L1324.41 830.834L1236.76 727.984Z" fill="#141414"/>
<path d="M1325.58 832.003L1413.24 729.152L1500.9 832.003L1413.24 934.853L1325.58 832.003Z" fill="#141414"/>
<path d="M1236.76 936.022L1324.41 833.171L1412.07 936.022L1324.41 1038.87L1236.76 936.022Z" fill="#141414"/>
<path d="M1325.58 1040.04L1413.24 937.19L1500.9 1040.04L1413.24 1142.89L1325.58 1040.04Z" fill="#141414"/>
<path d="M1236.76 1144.06L1324.41 1041.21L1412.07 1144.06L1324.41 1246.91L1236.76 1144.06Z" fill="#141414"/>
<path d="M1414.41 519.946L1502.06 417.095L1589.72 519.946L1502.06 622.796L1414.41 519.946Z" fill="#141414"/>
<path d="M1503.23 623.965L1590.89 521.114L1678.55 623.965L1590.89 726.815L1503.23 623.965Z" fill="#141414"/>
<path d="M1414.41 727.984L1502.06 625.134L1589.72 727.984L1502.06 830.834L1414.41 727.984Z" fill="#141414"/>
<path d="M1503.23 832.003L1590.89 729.152L1678.55 832.003L1590.89 934.853L1503.23 832.003Z" fill="#141414"/>
<path d="M1414.41 936.022L1502.06 833.171L1589.72 936.022L1502.06 1038.87L1414.41 936.022Z" fill="#141414"/>
<path d="M1503.23 1040.04L1590.89 937.19L1678.55 1040.04L1590.89 1142.89L1503.23 1040.04Z" fill="#141414"/>
<path d="M1414.41 1144.06L1502.06 1041.21L1589.72 1144.06L1502.06 1246.91L1414.41 1144.06Z" fill="#141414"/>
<path d="M1680.88 415.926L1768.54 313.076L1856.2 415.926L1768.54 518.777L1680.88 415.926Z" fill="#141414"/>
<path d="M1592.06 519.946L1679.71 417.095L1767.37 519.946L1679.71 622.796L1592.06 519.946Z" fill="#141414"/>
<path d="M1680.88 623.965L1768.54 521.114L1856.2 623.965L1768.54 726.815L1680.88 623.965Z" fill="#141414"/>
<path d="M1592.06 727.984L1679.71 625.134L1767.37 727.984L1679.71 830.834L1592.06 727.984Z" fill="#141414"/>
<path d="M1680.88 832.003L1768.54 729.152L1856.2 832.003L1768.54 934.853L1680.88 832.003Z" fill="#141414"/>
<path d="M1592.06 936.022L1679.71 833.171L1767.37 936.022L1679.71 1038.87L1592.06 936.022Z" fill="#141414"/>
<path d="M1680.88 1040.04L1768.54 937.19L1856.2 1040.04L1768.54 1142.89L1680.88 1040.04Z" fill="#141414"/>
<path d="M1592.06 1144.06L1679.71 1041.21L1767.37 1144.06L1679.71 1246.91L1592.06 1144.06Z" fill="#141414"/>
<path d="M1769.71 519.946L1857.36 417.095L1945.02 519.946L1857.36 622.796L1769.71 519.946Z" fill="#141414"/>
<path d="M1858.53 623.965L1946.19 521.114L2033.85 623.965L1946.19 726.815L1858.53 623.965Z" fill="#141414"/>
<path d="M1769.71 727.984L1857.36 625.134L1945.02 727.984L1857.36 830.834L1769.71 727.984Z" fill="#141414"/>
<path d="M1858.53 832.003L1946.19 729.152L2033.85 832.003L1946.19 934.853L1858.53 832.003Z" fill="#141414"/>
<path d="M1769.71 936.022L1857.36 833.171L1945.02 936.022L1857.36 1038.87L1769.71 936.022Z" fill="#141414"/>
<path d="M1858.53 1040.04L1946.19 937.19L2033.85 1040.04L1946.19 1142.89L1858.53 1040.04Z" fill="#141414"/>
<path d="M1769.71 1144.06L1857.36 1041.21L1945.02 1144.06L1857.36 1246.91L1769.71 1144.06Z" fill="#141414"/>
<path d="M1947.36 519.946L2035.01 417.095L2122.67 519.946L2035.01 622.796L1947.36 519.946Z" fill="#141414"/>
<path d="M2036.18 415.85L2123.84 313L2211.5 415.85L2123.84 518.701L2036.18 415.85Z" fill="#141414"/>
<path d="M1947.36 727.984L2035.01 625.134L2122.67 727.984L2035.01 830.834L1947.36 727.984Z" fill="#141414"/>
<path d="M2036.18 832.003L2123.84 729.152L2211.5 832.003L2123.84 934.853L2036.18 832.003Z" fill="#141414"/>
<path d="M1947.36 936.022L2035.01 833.171L2122.67 936.022L2035.01 1038.87L1947.36 936.022Z" fill="#141414"/>
<path d="M2036.18 1040.04L2123.84 937.19L2211.5 1040.04L2123.84 1142.89L2036.18 1040.04Z" fill="#141414"/>
<path d="M1947.36 1144.06L2035.01 1041.21L2122.67 1144.06L2035.01 1246.91L1947.36 1144.06Z" fill="#141414"/>
<path d="M2213.83 415.926L2301.49 313.076L2389.15 415.926L2301.49 518.777L2213.83 415.926Z" fill="#141414"/>
<path d="M2125.01 519.946L2212.67 417.095L2300.32 519.946L2212.67 622.796L2125.01 519.946Z" fill="#141414"/>
<path d="M2213.83 623.965L2301.49 521.114L2389.15 623.965L2301.49 726.815L2213.83 623.965Z" fill="#141414"/>
<path d="M2125.01 727.984L2212.67 625.134L2300.32 727.984L2212.67 830.834L2125.01 727.984Z" fill="#141414"/>
<path d="M2213.83 832.003L2301.49 729.152L2389.15 832.003L2301.49 934.853L2213.83 832.003Z" fill="#141414"/>
<path d="M2125.01 936.022L2212.67 833.171L2300.32 936.022L2212.67 1038.87L2125.01 936.022Z" fill="#141414"/>
<path d="M2213.83 1040.04L2301.49 937.19L2389.15 1040.04L2301.49 1142.89L2213.83 1040.04Z" fill="#141414"/>
<path d="M2302.66 311.907L2390.32 209.057L2477.97 311.907L2390.32 414.758L2302.66 311.907Z" fill="#141414"/>
<path d="M2391.49 415.926L2479.14 313.076L2566.8 415.926L2479.14 518.777L2391.49 415.926Z" fill="#141414"/>
<path d="M2302.66 519.946L2390.32 417.095L2477.97 519.946L2390.32 622.796L2302.66 519.946Z" fill="#141414"/>
<path d="M2391.49 623.965L2479.14 521.114L2566.8 623.965L2479.14 726.815L2391.49 623.965Z" fill="#141414"/>
<path d="M2302.66 727.984L2390.32 625.134L2477.97 727.984L2390.32 830.834L2302.66 727.984Z" fill="#141414"/>
<path d="M2391.49 832.003L2479.14 729.152L2566.8 832.003L2479.14 934.853L2391.49 832.003Z" fill="#141414"/>
<path d="M2391.49 1040.04L2479.14 937.19L2566.8 1040.04L2479.14 1142.89L2391.49 1040.04Z" fill="#141414"/>
<path d="M-95.6221 1248.08L-7.96558 1145.23L79.6909 1248.08L-7.96558 1350.93L-95.6221 1248.08Z" fill="#141414"/>
<path d="M82.0283 1248.08L169.685 1145.23L257.341 1248.08L169.685 1350.93L82.0283 1248.08Z" fill="#141414"/>
<path d="M970.281 1248.08L1057.94 1145.23L1145.59 1248.08L1057.94 1350.93L970.281 1248.08Z" fill="#141414"/>
<path d="M1147.93 1248.08L1235.59 1145.23L1323.24 1248.08L1235.59 1350.93L1147.93 1248.08Z" fill="#141414"/>
<path d="M1325.58 1248.08L1413.24 1145.23L1500.9 1248.08L1413.24 1350.93L1325.58 1248.08Z" fill="#141414"/>
<path d="M1503.23 1248.08L1590.89 1145.23L1678.55 1248.08L1590.89 1350.93L1503.23 1248.08Z" fill="#141414"/>
<path d="M1680.88 1248.08L1768.54 1145.23L1856.2 1248.08L1768.54 1350.93L1680.88 1248.08Z" fill="#141414"/>
<path d="M1858.53 1248.08L1946.19 1145.23L2033.85 1248.08L1946.19 1350.93L1858.53 1248.08Z" fill="#141414"/>
<path d="M2036.18 1248.08L2123.84 1145.23L2211.5 1248.08L2123.84 1350.93L2036.18 1248.08Z" fill="#141414"/>
<path d="M2213.83 1248.08L2301.49 1145.23L2389.15 1248.08L2301.49 1350.93L2213.83 1248.08Z" fill="#141414"/>
<path d="M2391.49 1248.08L2479.14 1145.23L2566.8 1248.08L2479.14 1350.93L2391.49 1248.08Z" fill="#141414"/>
<path d="M-95.6221 1455.41L-7.96558 1352.56L79.6909 1455.41L-7.96558 1558.26L-95.6221 1455.41Z" fill="#141414"/>
<path d="M970.281 1455.41L1057.94 1352.56L1145.59 1455.41L1057.94 1558.26L970.281 1455.41Z" fill="#141414"/>
<path d="M1147.93 1455.41L1235.59 1352.56L1323.24 1455.41L1235.59 1558.26L1147.93 1455.41Z" fill="#141414"/>
<path d="M1325.58 1455.41L1413.24 1352.56L1500.9 1455.41L1413.24 1558.26L1325.58 1455.41Z" fill="#141414"/>
<path d="M1503.23 1455.41L1590.89 1352.56L1678.55 1455.41L1590.89 1558.26L1503.23 1455.41Z" fill="#141414"/>
<path d="M1680.88 1455.41L1768.54 1352.56L1856.2 1455.41L1768.54 1558.26L1680.88 1455.41Z" fill="#141414"/>
<path d="M2391.49 1455.41L2479.14 1352.56L2566.8 1455.41L2479.14 1558.26L2391.49 1455.41Z" fill="#141414"/>
<path d="M2302.66 1144.06L2390.32 1041.21L2477.97 1144.06L2390.32 1246.91L2302.66 1144.06Z" fill="#141414"/>
<path d="M2480.31 311.907L2567.97 209.057L2655.62 311.907L2567.97 414.758L2480.31 311.907Z" fill="#141414"/>
<path d="M2480.31 519.946L2567.97 417.095L2655.62 519.946L2567.97 622.796L2480.31 519.946Z" fill="#141414"/>
<path d="M2480.31 727.984L2567.97 625.134L2655.62 727.984L2567.97 830.834L2480.31 727.984Z" fill="#141414"/>
<path d="M2480.31 936.022L2567.97 833.171L2655.62 936.022L2567.97 1038.87L2480.31 936.022Z" fill="#141414"/>
<path d="M-6.79688 1351.69L80.8596 1248.84L168.516 1351.69L80.8596 1454.54L-6.79688 1351.69Z" fill="#141414"/>
<path d="M1059.11 1351.69L1146.76 1248.84L1234.42 1351.69L1146.76 1454.54L1059.11 1351.69Z" fill="#141414"/>
<path d="M1236.76 1351.69L1324.41 1248.84L1412.07 1351.69L1324.41 1454.54L1236.76 1351.69Z" fill="#141414"/>
<path d="M1414.41 1351.69L1502.06 1248.84L1589.72 1351.69L1502.06 1454.54L1414.41 1351.69Z" fill="#141414"/>
<path d="M1592.06 1351.69L1679.71 1248.84L1767.37 1351.69L1679.71 1454.54L1592.06 1351.69Z" fill="#141414"/>
<path d="M1769.71 1351.69L1857.36 1248.84L1945.02 1351.69L1857.36 1454.54L1769.71 1351.69Z" fill="#141414"/>
<path d="M1947.36 1351.69L2035.01 1248.84L2122.67 1351.69L2035.01 1454.54L1947.36 1351.69Z" fill="#141414"/>
<path d="M2302.66 1351.69L2390.32 1248.84L2477.97 1351.69L2390.32 1454.54L2302.66 1351.69Z" fill="#141414"/>
<path d="M2480.31 1351.69L2567.97 1248.84L2655.62 1351.69L2567.97 1454.54L2480.31 1351.69Z" fill="#141414"/>
</g>
<defs>
<filter id="filter0_f_501_1893" x="1340.8" y="203.3" width="2169.4" height="2169.4" filterUnits="userSpaceOnUse" color-interpolation-filters="sRGB">
<feFlood flood-opacity="0" result="BackgroundImageFix"/>
<feBlend mode="normal" in="SourceGraphic" in2="BackgroundImageFix" result="shape"/>
<feGaussianBlur stdDeviation="92.35" result="effect1_foregroundBlur_501_1893"/>
</filter>
<clipPath id="paint0_diamond_501_1893_clip_path"><path d="M3325.5 1288C3325.5 1785.06 2922.56 2188 2425.5 2188C1928.44 2188 1525.5 1785.06 1525.5 1288C1525.5 790.944 1928.44 388 2425.5 388C2922.56 388 3325.5 790.944 3325.5 1288Z"/></clipPath><filter id="filter1_f_501_1893" x="-1027.5" y="-1003.5" width="2400" height="2400" filterUnits="userSpaceOnUse" color-interpolation-filters="sRGB">
<feFlood flood-opacity="0" result="BackgroundImageFix"/>
<feBlend mode="normal" in="SourceGraphic" in2="BackgroundImageFix" result="shape"/>
<feGaussianBlur stdDeviation="150" result="effect1_foregroundBlur_501_1893"/>
</filter>
<clipPath id="paint1_diamond_501_1893_clip_path"><path d="M1072.5 196.5C1072.5 693.556 669.556 1096.5 172.5 1096.5C-324.556 1096.5 -727.5 693.556 -727.5 196.5C-727.5 -300.556 -324.556 -703.5 172.5 -703.5C669.556 -703.5 1072.5 -300.556 1072.5 196.5Z"/></clipPath><linearGradient id="paint0_diamond_501_1893" x1="0" y1="0" x2="500" y2="500" gradientUnits="userSpaceOnUse">
<stop offset="0.53" stop-color="#2382FF"/>
<stop offset="0.725" stop-color="#4EFFFF"/>
</linearGradient>
<linearGradient id="paint1_diamond_501_1893" x1="0" y1="0" x2="500" y2="500" gradientUnits="userSpaceOnUse">
<stop offset="0.53" stop-color="#00FC69"/>
<stop offset="0.725" stop-color="#4EFFFF"/>
</linearGradient>
<clipPath id="clip0_501_1893">
<rect width="2560" height="1440" fill="white"/>
</clipPath>
</defs>
</svg>
